<svg xmlns="http://www.w3.org/2000/svg" xmlns:xlink="http://www.w3.org/1999/xlink" width="500" zoomAndPan="magnify" viewBox="0 0 375 374.999991" height="500" preserveAspectRatio="xMidYMid meet" version="1.0"><defs><g/><clipPath id="77b77242da"><path d="M 68 112.023438 L 168.007812 112.023438 L 168.007812 227 L 68 227 Z M 68 112.023438 " clip-rule="nonzero"/></clipPath><clipPath id="df984b87b7"><path d="M 55.507812 160 L 129 160 L 129 232.773438 L 55.507812 232.773438 Z M 55.507812 160 " clip-rule="nonzero"/></clipPath></defs><g clip-path="url(#77b77242da)"><path fill="#00a859" d="M 86.46875 144.316406 C 88.351562 142.429688 89.519531 139.824219 89.519531 136.945312 C 89.519531 134.070312 88.351562 131.464844 86.46875 129.578125 C 84.582031 127.691406 81.976562 126.523438 79.097656 126.523438 C 76.21875 126.523438 73.617188 127.691406 71.730469 129.578125 C 69.84375 131.460938 68.675781 134.066406 68.675781 136.945312 C 68.675781 139.824219 69.84375 142.425781 71.730469 144.316406 C 73.003906 145.589844 74.605469 146.535156 76.402344 147.015625 C 78.183594 168.503906 93.832031 174.261719 103.957031 177.417969 C 108.699219 178.898438 115.324219 183.832031 115.851562 187.730469 C 118.84375 210.003906 138.449219 216.164062 147.519531 217.828125 C 147.84375 220.113281 148.910156 222.15625 150.46875 223.714844 C 152.351562 225.597656 154.957031 226.765625 157.835938 226.765625 C 160.714844 226.765625 163.320312 225.597656 165.207031 223.714844 C 167.089844 221.828125 168.257812 219.222656 168.257812 216.34375 C 168.257812 213.46875 167.089844 210.863281 165.207031 208.976562 C 163.320312 207.089844 160.714844 205.921875 157.835938 205.921875 C 154.957031 205.921875 152.355469 207.089844 150.46875 208.976562 C 149.796875 209.648438 149.214844 210.410156 148.746094 211.246094 C 136.28125 207.832031 129.335938 201.835938 126.269531 195.597656 C 117.703125 178.164062 132.3125 178.535156 137.082031 176.988281 C 165.308594 167.832031 165.175781 136.148438 165.175781 136.148438 C 166.730469 124.972656 157.199219 128.644531 154.027344 129.386719 C 116.136719 138.28125 112.804688 169.652344 112.804688 169.652344 C 95.585938 136.5 122.875 118.792969 122.875 118.792969 C 128.152344 126.78125 130.542969 135.457031 130.542969 135.457031 L 135.605469 131.625 C 128.929688 114.425781 123.9375 112.019531 123.9375 112.019531 C 88.25 131.480469 105.148438 169.296875 105.148438 169.296875 C 88.910156 165.027344 84.125 156.222656 82.769531 146.703125 C 84.167969 146.175781 85.425781 145.355469 86.464844 144.316406 Z M 154.722656 212.597656 C 155.566406 211.894531 156.652344 211.472656 157.839844 211.472656 C 159.183594 211.472656 160.402344 212.019531 161.285156 212.898438 C 162.164062 213.78125 162.710938 215 162.710938 216.347656 C 162.710938 217.691406 162.164062 218.910156 161.285156 219.792969 C 160.402344 220.675781 159.183594 221.21875 157.839844 221.21875 C 156.492188 221.21875 155.273438 220.675781 154.390625 219.792969 C 153.976562 219.378906 153.640625 218.890625 153.394531 218.351562 C 153.121094 217.738281 152.964844 217.0625 152.964844 216.347656 C 152.964844 215 153.511719 213.78125 154.390625 212.898438 C 154.496094 212.792969 154.605469 212.695312 154.722656 212.597656 Z M 122.671875 165.257812 C 125.742188 155.949219 131.605469 142.363281 150.601562 137.734375 C 153.492188 137.027344 161.316406 132.058594 155.085938 148.761719 C 151.894531 157.308594 147.226562 166.261719 126.976562 172.039062 C 125.046875 172.589844 119.457031 174.992188 122.671875 165.257812 Z M 83.972656 136.945312 C 83.972656 138.292969 83.425781 139.511719 82.542969 140.390625 C 82.460938 140.472656 82.378906 140.550781 82.292969 140.625 C 81.4375 141.367188 80.320312 141.820312 79.097656 141.820312 C 78.042969 141.820312 77.066406 141.484375 76.269531 140.914062 C 76.050781 140.757812 75.84375 140.582031 75.652344 140.390625 C 74.773438 139.511719 74.226562 138.292969 74.226562 136.945312 C 74.226562 135.601562 74.773438 134.382812 75.652344 133.5 C 76.535156 132.617188 77.753906 132.074219 79.097656 132.074219 C 80.445312 132.074219 81.664062 132.617188 82.546875 133.5 C 83.425781 134.382812 83.972656 135.597656 83.972656 136.945312 Z M 83.972656 136.945312 " fill-opacity="1" fill-rule="evenodd"/></g><path fill="#a8cf45" d="M 146.378906 144.183594 C 134.648438 147.042969 131.027344 155.4375 129.128906 161.183594 C 127.144531 167.199219 130.59375 165.714844 131.785156 165.375 C 144.292969 161.804688 147.175781 156.277344 149.148438 150.996094 C 152.996094 140.679688 148.164062 143.75 146.378906 144.183594 Z M 146.378906 144.183594 " fill-opacity="1" fill-rule="evenodd"/><path fill="#a8cf45" d="M 112.898438 158.59375 C 112.898438 158.59375 116.035156 145.589844 125.539062 138.460938 C 125.425781 137.800781 125.257812 137.027344 125.039062 136.132812 C 125.039062 136.132812 123.683594 131.214844 120.691406 126.683594 C 120.691406 126.683594 106.570312 138.960938 112.898438 158.59375 Z M 112.898438 158.59375 " fill-opacity="1" fill-rule="evenodd"/><g clip-path="url(#df984b87b7)"><path fill="#000000" d="M 112.167969 211.328125 C 105.453125 214.617188 97.515625 214.902344 90.582031 212.046875 C 88.996094 211.394531 87.597656 210.652344 86.277344 209.78125 C 85.589844 209.324219 84.890625 208.863281 84.328125 208.394531 L 83 207.292969 L 79.492188 203.414062 C 78.582031 202.109375 77.773438 200.964844 76.988281 199.347656 C 73.691406 192.570312 73.40625 184.757812 76.265625 177.765625 C 77.210938 175.449219 78.820312 172.722656 80.457031 170.84375 C 77.609375 167.859375 75.429688 164.503906 73.84375 160.855469 C 73.800781 160.898438 73.757812 160.941406 73.714844 160.984375 C 73.28125 161.417969 72.351562 162.605469 71.925781 162.859375 L 64.496094 160.238281 C 64.050781 160.765625 63.402344 162.058594 63.019531 162.722656 C 62.519531 163.59375 58.945312 169.890625 58.679688 170.148438 C 58.910156 170.675781 59.769531 171.1875 60.179688 171.574219 L 64.011719 174.859375 C 64.3125 175.101562 64.453125 175.175781 64.695312 175.5 C 64.472656 176.265625 64.191406 177.082031 63.96875 177.902344 C 63.398438 180.011719 63.71875 180.410156 62.875 180.589844 L 55.539062 181.9375 L 55.539062 193.558594 C 56.957031 193.722656 60.554688 194.488281 62.414062 194.824219 C 63.820312 195.082031 63.191406 194.753906 63.992188 197.664062 C 64.207031 198.453125 64.5625 199.367188 64.714844 200.105469 L 58.691406 205.199219 C 58.824219 205.667969 62.457031 211.789062 63.023438 212.773438 C 63.484375 213.582031 64.039062 214.46875 64.472656 215.296875 L 71.988281 212.648438 C 72.582031 213.304688 73.191406 213.992188 73.804688 214.601562 C 74.21875 215.011719 75.441406 215.980469 75.675781 216.386719 L 73.054688 223.816406 L 75.539062 225.292969 C 76.226562 225.6875 82.695312 229.496094 83.09375 229.621094 C 83.386719 229.414062 84.664062 227.808594 85.101562 227.3125 L 86.40625 225.828125 C 86.832031 225.351562 87.792969 224.019531 88.316406 223.617188 C 89.085938 223.8125 89.945312 224.136719 90.792969 224.359375 C 91.242188 224.480469 93.007812 224.804688 93.320312 225.011719 L 94.761719 232.820312 L 106.363281 232.820312 L 107.808594 225.015625 L 108.441406 224.804688 C 108.683594 224.757812 108.878906 224.714844 109.109375 224.660156 C 110.367188 224.367188 112.238281 223.726562 112.925781 223.589844 C 113.113281 223.867188 113.316406 224.03125 113.523438 224.3125 L 116.078125 227.347656 C 116.351562 227.636719 116.527344 227.820312 116.765625 228.101562 L 118.007812 229.625 C 118.390625 229.519531 122.441406 227.128906 123.078125 226.742188 C 123.910156 226.246094 124.734375 225.785156 125.585938 225.289062 C 126.382812 224.824219 127.289062 224.277344 128.09375 223.839844 L 125.816406 217.339844 C 125.527344 216.546875 125.28125 216.457031 125.800781 215.960938 C 126.015625 215.761719 126.195312 215.601562 126.359375 215.457031 C 123.144531 213.214844 120.292969 210.558594 117.894531 207.492188 C 117.367188 207.96875 116.722656 208.472656 116.230469 208.820312 C 114.796875 209.832031 113.820312 210.515625 112.167969 211.328125 Z M 112.167969 211.328125 " fill-opacity="1" fill-rule="evenodd"/></g><g fill="#00a859" fill-opacity="1"><g transform="translate(153.03562, 198.374987)"><g><path d="M 20.3125 -28.609375 L 20.3125 -23.328125 L 10 -23.328125 L 10 -17.1875 L 19.09375 -17.1875 L 19.09375 -11.90625 L 10 -11.90625 L 10 -5.28125 L 20.3125 -5.28125 L 20.3125 0 L 3.046875 0 L 3.046875 -28.609375 Z M 20.3125 -28.609375 "/></g></g></g><g fill="#00a859" fill-opacity="1"><g transform="translate(175.259374, 198.374987)"><g><path d="M 4.53125 -2.890625 C 2.425781 -5.003906 1.375 -7.820312 1.375 -11.34375 C 1.375 -14.863281 2.425781 -17.671875 4.53125 -19.765625 C 6.632812 -21.867188 9.351562 -22.921875 12.6875 -22.921875 C 15.445312 -22.921875 17.785156 -22.234375 19.703125 -20.859375 C 21.628906 -19.492188 22.90625 -17.539062 23.53125 -15 L 16.015625 -15 C 15.359375 -16.351562 14.289062 -17.03125 12.8125 -17.03125 C 11.34375 -17.03125 10.25 -16.507812 9.53125 -15.46875 C 8.8125 -14.425781 8.453125 -13.050781 8.453125 -11.34375 C 8.453125 -9.632812 8.8125 -8.257812 9.53125 -7.21875 C 10.25 -6.175781 11.300781 -5.65625 12.6875 -5.65625 C 13.550781 -5.65625 14.222656 -5.800781 14.703125 -6.09375 C 15.191406 -6.394531 15.628906 -6.925781 16.015625 -7.6875 L 23.53125 -7.6875 C 22.90625 -5.238281 21.617188 -3.296875 19.671875 -1.859375 C 17.722656 -0.429688 15.394531 0.28125 12.6875 0.28125 C 9.351562 0.28125 6.632812 -0.773438 4.53125 -2.890625 Z M 4.53125 -2.890625 "/></g></g></g><g fill="#00a859" fill-opacity="1"><g transform="translate(198.620739, 198.374987)"><g><path d="M 16.65625 -7.109375 C 17.582031 -8.085938 18.046875 -9.5 18.046875 -11.34375 C 18.046875 -13.1875 17.570312 -14.585938 16.625 -15.546875 C 15.675781 -16.503906 14.550781 -16.984375 13.25 -16.984375 C 11.945312 -16.984375 10.828125 -16.503906 9.890625 -15.546875 C 8.960938 -14.585938 8.5 -13.1875 8.5 -11.34375 C 8.5 -9.5 8.976562 -8.085938 9.9375 -7.109375 C 10.894531 -6.140625 12.023438 -5.65625 13.328125 -5.65625 C 14.628906 -5.65625 15.738281 -6.140625 16.65625 -7.109375 Z M 4.859375 -2.921875 C 2.566406 -5.066406 1.421875 -7.882812 1.421875 -11.375 C 1.421875 -14.875 2.554688 -17.671875 4.828125 -19.765625 C 7.109375 -21.867188 9.925781 -22.921875 13.28125 -22.921875 C 16.644531 -22.921875 19.457031 -21.867188 21.71875 -19.765625 C 23.976562 -17.671875 25.109375 -14.875 25.109375 -11.375 C 25.109375 -7.882812 23.984375 -5.066406 21.734375 -2.921875 C 19.492188 -0.785156 16.691406 0.28125 13.328125 0.28125 C 9.972656 0.28125 7.148438 -0.785156 4.859375 -2.921875 Z M 4.859375 -2.921875 "/></g></g></g><g fill="#00a859" fill-opacity="1"><g transform="translate(224.135434, 198.374987)"><g><path d="M 1.09375 -23.25 L 1.09375 -28.53125 L 23.609375 -28.53125 L 23.609375 -23.25 L 15.8125 -23.25 L 15.8125 0 L 8.859375 0 L 8.859375 -23.25 Z M 1.09375 -23.25 "/></g></g></g><g fill="#00a859" fill-opacity="1"><g transform="translate(247.821836, 198.374987)"><g><path d="M 12.6875 0.28125 C 9.375 0.28125 6.660156 -0.78125 4.546875 -2.90625 C 2.429688 -5.03125 1.375 -7.851562 1.375 -11.375 C 1.375 -14.894531 2.425781 -17.695312 4.53125 -19.78125 C 6.632812 -21.875 9.347656 -22.921875 12.671875 -22.921875 C 16.003906 -22.921875 18.769531 -21.890625 20.96875 -19.828125 C 23.164062 -17.773438 24.265625 -14.914062 24.265625 -11.25 C 24.265625 -10.46875 24.207031 -9.738281 24.09375 -9.0625 L 8.5 -9.0625 C 8.632812 -8.0625 9.078125 -7.242188 9.828125 -6.609375 C 10.585938 -5.972656 11.40625 -5.65625 12.28125 -5.65625 C 13.164062 -5.65625 13.828125 -5.738281 14.265625 -5.90625 C 14.703125 -6.082031 15.019531 -6.257812 15.21875 -6.4375 C 15.425781 -6.613281 15.691406 -6.90625 16.015625 -7.3125 L 23.53125 -7.3125 C 22.882812 -5.039062 21.582031 -3.207031 19.625 -1.8125 C 17.675781 -0.414062 15.363281 0.28125 12.6875 0.28125 Z M 17.03125 -13.40625 C 16.914062 -14.46875 16.453125 -15.328125 15.640625 -15.984375 C 14.828125 -16.648438 13.863281 -16.984375 12.75 -16.984375 C 11.644531 -16.984375 10.710938 -16.648438 9.953125 -15.984375 C 9.191406 -15.328125 8.71875 -14.46875 8.53125 -13.40625 Z M 17.03125 -13.40625 "/></g></g></g><g fill="#00a859" fill-opacity="1"><g transform="translate(272.48332, 198.374987)"><g><path d="M 4.53125 -2.890625 C 2.425781 -5.003906 1.375 -7.820312 1.375 -11.34375 C 1.375 -14.863281 2.425781 -17.671875 4.53125 -19.765625 C 6.632812 -21.867188 9.351562 -22.921875 12.6875 -22.921875 C 15.445312 -22.921875 17.785156 -22.234375 19.703125 -20.859375 C 21.628906 -19.492188 22.90625 -17.539062 23.53125 -15 L 16.015625 -15 C 15.359375 -16.351562 14.289062 -17.03125 12.8125 -17.03125 C 11.34375 -17.03125 10.25 -16.507812 9.53125 -15.46875 C 8.8125 -14.425781 8.453125 -13.050781 8.453125 -11.34375 C 8.453125 -9.632812 8.8125 -8.257812 9.53125 -7.21875 C 10.25 -6.175781 11.300781 -5.65625 12.6875 -5.65625 C 13.550781 -5.65625 14.222656 -5.800781 14.703125 -6.09375 C 15.191406 -6.394531 15.628906 -6.925781 16.015625 -7.6875 L 23.53125 -7.6875 C 22.90625 -5.238281 21.617188 -3.296875 19.671875 -1.859375 C 17.722656 -0.429688 15.394531 0.28125 12.6875 0.28125 C 9.351562 0.28125 6.632812 -0.773438 4.53125 -2.890625 Z M 4.53125 -2.890625 "/></g></g></g><g fill="#00a859" fill-opacity="1"><g transform="translate(295.844681, 198.374987)"><g><path d="M 10 -30.078125 L 10 -19.34375 C 11.4375 -21.726562 13.722656 -22.921875 16.859375 -22.921875 C 19.460938 -22.921875 21.570312 -22.050781 23.1875 -20.3125 C 24.800781 -18.582031 25.609375 -16.226562 25.609375 -13.25 L 25.609375 0 L 18.6875 0 L 18.6875 -12.3125 C 18.6875 -13.78125 18.300781 -14.910156 17.53125 -15.703125 C 16.757812 -16.503906 15.695312 -16.90625 14.34375 -16.90625 C 12.988281 -16.90625 11.925781 -16.503906 11.15625 -15.703125 C 10.382812 -14.910156 10 -13.78125 10 -12.3125 L 10 0 L 3.046875 0 L 3.046875 -30.078125 Z M 10 -30.078125 "/></g></g></g></svg>